<?xml version="1.0" encoding="UTF-8"?>
<svg xmlns="http://www.w3.org/2000/svg" viewBox="0 0 100 100"><circle cx="50" cy="50" r="2" fill="#f00"></circle><g transform="translate(50,50) rotate(93.1764705882353)"><path d="M 32.996550531478455 26.60808419208473 A 42.38823529411764 42.38823529411764 0 0 0 2.5955308337223018e-15 -42.38823529411764" fill="none" stroke="rgb(227, 176, 196)" stroke-width="4.305882352941177"></path></g><g transform="translate(50,50) rotate(214.58823529411765)"><path d="M 21.007639441793195 26.718518362587382 A 33.98823529411764 33.98823529411764 0 0 0 2.0811791780804137e-15 -33.98823529411764" fill="none" stroke="rgb(176, 196, 66)" stroke-width="2.776470588235294"></path></g><g transform="translate(50,50) rotate(355.7647058823529)"><path d="M 31.5153951394046 -19.91867741687793 A 37.28235294117647 37.28235294117647 0 0 0 2.2828857097046835e-15 -37.28235294117647" fill="none" stroke="rgb(196, 66, 152)" stroke-width="3.788235294117647"></path></g><g transform="translate(50,50) rotate(39.529411764705884)"><path d="M 14.570477679695305 6.291005573019067 A 15.870588235294118 15.870588235294118 0 0 0 9.717932541469291e-16 -15.870588235294118" fill="none" stroke="rgb(66, 152, 252)" stroke-width="4.964705882352941"></path></g><g transform="translate(50,50) rotate(28.235294117647058)"><path d="M 1.0173987223721161 30.018057774834126 A 30.03529411764706 30.03529411764706 0 0 0 1.83913134013129e-15 -30.03529411764706" fill="none" stroke="rgb(152, 252, 28)" stroke-width="2.3294117647058825"></path></g><g transform="translate(50,50) rotate(217.41176470588235)"><path d="M 25.4089516439842 -38.95102398884114 A 46.50588235294118 46.50588235294118 0 0 0 2.84766399825264e-15 -46.50588235294118" fill="none" stroke="rgb(252, 28, 20)" stroke-width="2.235294117647059"></path></g><g transform="translate(50,50) rotate(354.35294117647055)"><path d="M 4.503734845258896 -8.491312808090777 A 9.611764705882353 9.611764705882353 0 0 0 5.885508440608162e-16 -9.611764705882353" fill="none" stroke="rgb(28, 20, 154)" stroke-width="3.8117647058823527"></path></g><g transform="translate(50,50) rotate(344.47058823529414)"><path d="M 7.538472918006572 3.458874615786767 A 8.294117647058822 8.294117647058822 0 0 0 5.078682314111082e-16 -8.294117647058822" fill="none" stroke="rgb(20, 154, 251)" stroke-width="4.952941176470588"></path></g><g transform="translate(50,50) rotate(282.3529411764706)"><path d="M 1.371205310166439 30.333729729777225 A 30.36470588235294 30.36470588235294 0 0 0 1.859301993293717e-15 -30.36470588235294" fill="none" stroke="rgb(154, 251, 244)" stroke-width="4.870588235294118"></path></g><g transform="translate(50,50) rotate(216)"><path d="M 5.742001176101256 45.98406309985941 A 46.34117647058823 46.34117647058823 0 0 0 2.8375786716714256e-15 -46.34117647058823" fill="none" stroke="rgb(251, 244, 200)" stroke-width="4.352941176470589"></path></g><g transform="translate(50,50) rotate(156.7058823529412)"><path d="M 26.29756473056732 36.74798903665562 A 45.188235294117646 45.188235294117646 0 0 0 2.7669813856029315e-15 -45.188235294117646" fill="none" stroke="rgb(244, 200, 153)" stroke-width="3.8"></path></g><g transform="translate(50,50) rotate(261.1764705882353)"><path d="M 34.6609894223222 15.432066751993593 A 37.94117647058823 37.94117647058823 0 0 0 2.3232270160295375e-15 -37.94117647058823" fill="none" stroke="rgb(200, 153, 111)" stroke-width="3.3058823529411763"></path></g><g transform="translate(50,50) rotate(50.8235294117647)"><path d="M 30.153600839816505 -1.67342654246229 A 30.2 30.2 0 0 0 1.8492166667125033e-15 -30.2" fill="none" stroke="rgb(153, 111, 185)" stroke-width="4.1764705882352935"></path></g><g transform="translate(50,50) rotate(55.05882352941177)"><path d="M 16.547402798301874 16.37838267681702 A 23.28235294117647 23.28235294117647 0 0 0 1.4256329503015365e-15 -23.28235294117647" fill="none" stroke="rgb(111, 185, 36)" stroke-width="2.4235294117647057"></path></g><g transform="translate(50,50) rotate(245.64705882352942)"><path d="M 21.981068845941422 -27.838736360470257 A 35.470588235294116 35.470588235294116 0 0 0 2.171947117311335e-15 -35.470588235294116" fill="none" stroke="rgb(185, 36, 39)" stroke-width="2.458823529411765"></path></g><g transform="translate(50,50) rotate(91.76470588235293)"><path d="M 7.059613765296769 -8.34349417254688 A 10.929411764705883 10.929411764705883 0 0 0 6.692334567105242e-16 -10.929411764705883" fill="none" stroke="rgb(36, 39, 174)" stroke-width="4.047058823529412"></path></g><g transform="translate(50,50) rotate(321.88235294117646)"><path d="M 9.05217502498925 6.968152663254026 A 11.423529411764706 11.423529411764706 0 0 0 6.994894364541647e-16 -11.423529411764706" fill="none" stroke="rgb(39, 174, 65)" stroke-width="2.764705882352941"></path></g><g transform="translate(50,50) rotate(141.1764705882353)"><path d="M 28.247470481484473 -18.302918149348372 A 33.65882352941176 33.65882352941176 0 0 0 2.0610085249179867e-15 -33.65882352941176" fill="none" stroke="rgb(174, 65, 228)" stroke-width="4.682352941176471"></path></g><g transform="translate(50,50) rotate(218.8235294117647)"><path d="M 4.715160103257881 14.98138864341601 A 15.705882352941176 15.705882352941176 0 0 0 9.617079275657156e-16 -15.705882352941176" fill="none" stroke="rgb(65, 228, 100)" stroke-width="3.1764705882352944"></path></g><g transform="translate(50,50) rotate(207.52941176470586)"><path d="M 41.867983066627 -7.604261745942287 A 42.55294117647059 42.55294117647059 0 0 0 2.6056161603035156e-15 -42.55294117647059" fill="none" stroke="rgb(228, 100, 155)" stroke-width="3.8235294117647056"></path></g><g transform="translate(50,50) rotate(107.29411764705883)"><path d="M 19.412126080780077 9.173631788634644 A 21.470588235294116 21.470588235294116 0 0 0 1.3146943579081879e-15 -21.470588235294116" fill="none" stroke="rgb(100, 155, 147)" stroke-width="3.7294117647058824"></path></g><g transform="translate(50,50) rotate(231.5294117647059)"><path d="M 28.666762303483196 10.500558163000505 A 30.52941176470588 30.52941176470588 0 0 0 1.8693873198749303e-15 -30.52941176470588" fill="none" stroke="rgb(155, 147, 76)" stroke-width="2.8941176470588235"></path></g><g transform="translate(50,50) rotate(210.3529411764706)"><path d="M 26.29467674317134 -12.724667862225642 A 29.211764705882352 29.211764705882352 0 0 0 1.7887047072252224e-15 -29.211764705882352" fill="none" stroke="rgb(147, 76, 164)" stroke-width="3.9294117647058826"></path></g><g transform="translate(50,50) rotate(216)"><path d="M 14.996996949057815 9.053068042794067 A 17.517647058823528 17.517647058823528 0 0 0 1.072646519959064e-15 -17.517647058823528" fill="none" stroke="rgb(76, 164, 149)" stroke-width="3.7529411764705882"></path></g><g transform="translate(50,50) rotate(38.11764705882353)"><path d="M 29.802340717600252 11.686469412822738 A 32.01176470588236 32.01176470588236 0 0 0 1.960155259105852e-15 -32.01176470588236" fill="none" stroke="rgb(164, 149, 153)" stroke-width="3.8"></path></g><g transform="translate(50,50) rotate(169.41176470588235)"><path d="M 26.987207578124362 12.015478950156874 A 29.541176470588237 29.541176470588237 0 0 0 1.8088753603876494e-15 -29.541176470588237" fill="none" stroke="rgb(149, 153, 27)" stroke-width="2.317647058823529"></path></g><g transform="translate(50,50) rotate(115.76470588235296)"><path d="M 16.213371248854234 -25.47874786457974 A 30.2 30.2 0 0 0 1.8492166667125033e-15 -30.2" fill="none" stroke="rgb(153, 27, 120)" stroke-width="3.411764705882353"></path></g><g transform="translate(50,50) rotate(259.7647058823529)"><path d="M 9.436978573721236 0.4362978505003389 A 9.447058823529412 9.447058823529412 0 0 0 5.784655174796027e-16 -9.447058823529412" fill="none" stroke="rgb(27, 120, 82)" stroke-width="2.9647058823529413"></path></g></svg>
